# xmcd
#
# Track frame offsets:
#	150
#	21675
#	39573
#	55649
#	72009
#	88566
#	107300
#	124012
#	139239
#	160717
#
# Disc length: 2351 seconds
#
# Revision: 1
# Processed by: cddbd v1.5.2PL0 Copyright (c) Steve Scherf et al.
# Submitted via: audiograbber 1.83.01
#
DISCID=7c092d0a
DTITLE=all star - ASK 1202
DYEAR=2012
DGENRE=karoke
TTITLE0=Christina Perri - A Thousand Years
TTITLE1=Colbie Caillat - Brighter then The Sun
TTITLE2=Blake Shelton - Drink On It
TTITLE3=Eli Young Band - Even If It Breaks Your Beart
TTITLE4=Jason Aldean - Fly Over States
TTITLE5=Sara Evens - My Heart Cant Tell You No
TTITLE6=Hunter Hayes - Storm Warnings
TTITLE7=Craig Morgan - This Ole Boy
TTITLE8=Lana Del Rey - Video Games
TTITLE9=Montgomery Gentry - Where I Come From
EXTD=
EXTT0=
EXTT1=
EXTT2=
EXTT3=
EXTT4=
EXTT5=
EXTT6=
EXTT7=
EXTT8=
EXTT9=
PLAYORDER=
